<?xml version="1.0" standalone="no"?>
<!DOCTYPE svg PUBLIC "-//W3C//DTD SVG 20010904//EN"
 "http://www.w3.org/TR/2001/REC-SVG-20010904/DTD/svg10.dtd">
<svg version="1.0" xmlns="http://www.w3.org/2000/svg"
 width="260.000000pt" height="260.000000pt" viewBox="0 0 260.000000 260.000000"
 preserveAspectRatio="xMidYMid meet">
<metadata>
Created by potrace 1.11, written by Peter Selinger 2001-2013
</metadata>
<g transform="translate(0.000000,260.000000) scale(0.100000,-0.100000)"
fill="#000000" stroke="none">
<path d="M0 1300 l0 -1300 1300 0 1300 0 0 1300 0 1300 -1300 0 -1300 0 0
-1300z m1290 1165 c-1 -6 9 -13 22 -17 l23 -6 -22 -7 c-27 -9 -36 -42 -15 -55
13 -7 10 -9 -17 -10 -27 0 -32 3 -23 12 19 19 14 45 -10 53 l-23 8 23 4 c12 2
22 11 22 20 0 8 5 13 11 11 6 -2 10 -8 9 -13z m-75 -45 c-3 -5 -12 -10 -18
-10 -7 0 -6 4 3 10 19 12 23 12 15 0z m212 -16 c-3 -3 -12 -4 -19 -1 -8 3 -5
6 6 6 11 1 17 -2 13 -5z m173 -49 c13 -14 21 -25 18 -25 -2 0 -15 11 -28 25
-13 14 -21 25 -18 25 2 0 15 -11 28 -25z m-292 -14 c11 -7 11 -9 -2 -14 -19
-7 -46 1 -46 14 0 11 31 11 48 0z m202 -21 c0 -5 -2 -10 -4 -10 -3 0 -8 5 -11
10 -3 6 -1 10 4 10 6 0 11 -4 11 -10z m-433 -6 c-3 -3 -12 -4 -19 -1 -8 3 -5
6 6 6 11 1 17 -2 13 -5z m253 -19 c8 -10 9 -19 1 -32 -9 -16 -10 -16 -11 5 0
19 -5 22 -39 22 -36 0 -58 10 -46 21 9 10 85 -4 95 -16z m-135 1 c18 -13 17
-14 -17 -13 -29 1 -35 4 -26 14 13 16 20 16 43 -1z m241 -19 c2 -14 1 -15 -3
-1 -4 13 -13 15 -44 11 -24 -3 -37 -1 -33 4 3 6 22 9 42 7 27 -2 37 -8 38 -21z
m-366 4 c0 -6 -4 -13 -10 -16 -5 -3 -10 -16 -10 -28 0 -15 -3 -18 -10 -11 -8
8 -7 19 1 37 12 26 29 36 29 18z m180 -5 c0 -3 -4 -8 -10 -11 -5 -3 -10 -1
-10 4 0 6 5 11 10 11 6 0 10 -2 10 -4z m50 -16 c0 -13 -7 -20 -20 -20 -19 0
-27 20 -13 33 13 14 33 6 33 -13z m280 10 c0 -5 -2 -10 -4 -10 -3 0 -8 5 -11
10 -3 6 -1 10 4 10 6 0 11 -4 11 -10z m-430 -10 c0 -5 -2 -10 -4 -10 -3 0 -8
5 -11 10 -3 6 -1 10 4 10 6 0 11 -4 11 -10z m10 -48 c0 -15 -2 -15 -10 -2 -13
20 -13 33 0 25 6 -3 10 -14 10 -23z m100 8 c0 -5 -5 -10 -11 -10 -5 0 -7 5 -4
10 3 6 8 10 11 10 2 0 4 -4 4 -10z m243 -27 c-3 -18 -9 -33 -14 -33 -12 0 -11
13 1 46 13 34 19 28 13 -13z m-403 -25 c0 -5 -6 -8 -13 -8 -7 0 -14 14 -15 33
l-2 32 15 -25 c8 -14 14 -28 15 -32z m-47 22 c3 -11 1 -20 -4 -20 -5 0 -9 9
-9 20 0 11 2 20 4 20 2 0 6 -9 9 -20z m365 -35 c10 -9 -203 -5 -218 5 -10 6
24 8 99 5 63 -3 116 -7 119 -10z m152 6 c0 -6 -4 -13 -10 -16 -5 -3 -10 1 -10
9 0 9 5 16 10 16 6 0 10 -4 10 -9z m-540 -11 c0 -5 -4 -10 -10 -10 -5 0 -10 5
-10 10 0 6 5 10 10 10 6 0 10 -4 10 -10z m47 -28 c-31 -12 -37 -19 -33 -36 5
-20 5 -20 -9 -2 -13 17 -13 21 3 31 17 12 47 22 67 23 6 0 -7 -7 -28 -16z
m243 -24 c0 -5 -30 -8 -67 -8 -38 0 -94 -6 -126 -14 -37 -9 -57 -10 -54 -3 4
12 23 17 102 26 81 8 145 8 145 -1z m138 -4 c18 -3 30 -8 28 -12 -6 -11 -156
9 -156 20 0 8 38 6 128 -8z m519 -90 c-3 -3 -12 -4 -19 -1 -8 3 -5 6 6 6 11 1
17 -2 13 -5z m-756 -124 c14 -8 19 -21 19 -55 0 -61 -14 -93 -45 -101 -41 -10
-57 13 -56 82 1 76 29 102 82 74z m66 3 c-10 -3 -16 -8 -14 -11 2 -4 9 -22 17
-41 l13 -33 14 32 c20 50 26 30 6 -23 -17 -45 -17 -47 2 -62 19 -13 18 -14
-18 -15 -34 0 -36 1 -25 20 10 15 9 29 -7 72 -10 29 -23 56 -29 60 -6 4 5 7
24 7 19 -1 27 -3 17 -6z m53 -3 c0 -5 -4 -10 -10 -10 -5 0 -10 5 -10 10 0 6 5
10 10 10 6 0 10 -4 10 -10z m-293 -11 c-14 -8 -22 -8 -30 0 -8 8 -3 11 19 11
25 -1 27 -2 11 -11z m60 -8 c9 -14 9 -23 -3 -39 -16 -24 -5 -68 23 -89 16 -12
16 -13 0 -13 -19 0 -47 37 -47 62 0 11 -8 18 -20 18 -15 0 -20 -7 -20 -25 0
-14 5 -25 10 -25 6 0 10 -7 10 -15 0 -9 -9 -15 -25 -15 -25 0 -33 14 -15 25 6
3 10 28 10 56 0 49 13 66 23 29 3 -13 10 -18 21 -14 19 7 21 50 4 57 -9 4 -8
6 2 6 8 1 20 -7 27 -18z m323 -48 c7 -38 20 -73 29 -80 14 -11 11 -12 -17 -13
-28 0 -32 3 -27 19 4 13 0 20 -14 24 -20 5 -36 -16 -25 -34 3 -5 -2 -9 -10 -9
-13 0 -13 6 0 53 9 28 20 56 25 61 5 6 5 -4 0 -22 -5 -18 -9 -32 -8 -33 27
-11 36 -5 30 24 -3 18 -9 36 -14 41 -8 9 -1 36 10 36 4 0 13 -30 21 -67z m94
45 c-3 -12 -7 -42 -8 -67 -1 -36 3 -46 17 -49 11 -2 21 5 26 20 l10 23 0 -22
c1 -26 -27 -44 -63 -41 -24 2 -38 18 -16 18 13 0 13 96 0 121 -9 16 -7 19 15
19 23 0 25 -3 19 -22z m467 -51 c-10 -9 -11 -8 -5 6 3 10 9 15 12 12 3 -3 0
-11 -7 -18z m-1364 -99 c-3 -8 -6 -5 -6 6 -1 11 2 17 5 13 3 -3 4 -12 1 -19z
m1330 -120 c-2 -24 -4 -5 -4 42 0 47 2 66 4 43 2 -24 2 -62 0 -85z m-385 -316
c0 -292 -4 -427 -11 -436 -13 -16 -114 -30 -189 -28 -39 2 -54 -1 -58 -13 -4
-10 -10 -12 -18 -6 -11 8 -125 20 -213 21 -31 0 -45 5 -53 19 -6 12 -12 169
-15 398 -3 208 -8 390 -11 404 -8 41 13 49 142 55 66 3 120 7 121 8 1 1 70 1
153 1 l152 0 0 -423z m479 81 c13 -16 12 -17 -3 -4 -10 7 -18 15 -18 17 0 8 8
3 21 -13z m-229 -36 c10 -1 18 -12 20 -29 3 -15 3 -28 1 -28 -9 0 -34 30 -26
31 4 1 -10 7 -32 14 -33 10 -45 10 -66 -1 -32 -16 -39 -32 -39 -89 0 -35 5
-48 26 -64 45 -35 114 -20 114 25 0 8 5 14 10 14 6 0 10 -11 10 -24 0 -18 -9
-27 -40 -40 -53 -21 -93 -11 -131 32 -25 29 -30 41 -26 68 11 69 58 106 122
98 22 -3 48 -6 57 -7z m-919 -16 c5 -5 11 -44 12 -85 4 -96 -7 -106 -110 -106
-59 1 -67 3 -53 14 14 10 16 27 15 87 -2 60 1 74 13 74 9 0 16 -11 18 -27 3
-25 8 -28 38 -28 28 0 36 5 44 26 6 14 8 30 4 35 -3 5 -40 10 -82 10 -48 1
-66 4 -48 8 42 9 137 4 149 -8z m1202 -11 c10 -11 16 -20 13 -20 -3 0 -13 9
-23 20 -10 11 -16 20 -13 20 3 0 13 -9 23 -20z m72 -162 c-3 -8 -6 -5 -6 6 -1
11 2 17 5 13 3 -3 4 -12 1 -19z m-1770 -130 c-3 -8 -6 -5 -6 6 -1 11 2 17 5
13 3 -3 4 -12 1 -19z m1589 -53 c33 -51 -18 -107 -83 -90 -42 10 -53 24 -53
66 0 41 7 49 54 59 37 8 60 -2 82 -35z m-1288 5 c42 -40 22 -100 -39 -115 -54
-13 -92 73 -52 117 21 24 64 23 91 -2z m592 -246 c0 -13 -4 -24 -10 -24 -5 0
-10 4 -10 10 0 12 -67 30 -86 23 -30 -11 -14 -39 31 -52 62 -18 95 -46 95 -81
0 -50 -63 -74 -119 -46 -17 9 -32 14 -32 11 -1 -3 -2 -9 -3 -14 -4 -28 -16
-19 -16 12 0 42 7 45 40 17 13 -11 37 -20 56 -20 27 0 35 5 40 25 10 38 0 50
-52 63 -72 19 -90 35 -78 70 11 31 47 40 95 23 24 -8 29 -7 29 5 0 8 5 12 10
9 6 -3 10 -17 10 -31z m226 1 c44 -33 50 -78 18 -127 -40 -62 -117 -68 -174
-13 -24 23 -26 30 -20 72 10 66 57 108 109 98 20 -4 50 -17 67 -30z m140 -5
c20 -22 44 -50 52 -62 38 -56 52 -50 52 21 0 54 -2 60 -22 64 -13 2 0 4 27 4
28 0 40 -2 27 -4 -21 -4 -23 -9 -22 -61 4 -163 -4 -175 -60 -86 -19 31 -43 65
-52 76 -10 12 -15 24 -13 28 3 4 -2 11 -11 14 -25 10 -34 7 -28 -9 4 -8 7 -39
9 -67 3 -69 3 -68 20 -68 8 0 15 -4 15 -10 0 -5 -21 -9 -47 -9 -27 1 -40 3
-30 6 9 2 17 8 18 11 0 4 1 44 2 90 2 73 0 82 -16 82 -10 0 -15 5 -12 10 14
23 55 9 91 -30z m-687 -1 c35 -34 39 -64 15 -114 -22 -47 -68 -62 -179 -56
-35 2 -37 3 -17 11 22 9 23 14 20 92 -3 73 -5 83 -20 80 -10 -2 -18 2 -18 8 0
6 32 10 84 10 81 0 86 -1 115 -31z m146 21 c3 -6 -4 -10 -17 -10 -22 0 -23 -2
-20 -81 3 -71 6 -81 25 -89 21 -9 21 -9 -3 -10 -14 -1 -34 -3 -44 -5 -11 -2
-27 0 -35 5 -13 8 -13 9 5 10 19 0 20 6 21 85 1 83 1 85 -23 85 -13 0 -24 5
-24 10 0 6 24 10 54 10 30 0 58 -4 61 -10z m1032 -42 c-3 -8 -6 -5 -6 6 -1 11
2 17 5 13 3 -3 4 -12 1 -19z m-1597 -8 c0 -5 -2 -10 -4 -10 -3 0 -8 5 -11 10
-3 6 -1 10 4 10 6 0 11 -4 11 -10z m1460 -213 c0 -2 -10 -12 -22 -23 l-23 -19
19 23 c18 21 26 27 26 19z m-1375 -67 c10 -11 16 -20 13 -20 -3 0 -13 9 -23
20 -10 11 -16 20 -13 20 3 0 13 -9 23 -20z m528 -227 c-7 -2 -21 -2 -30 0 -10
3 -4 5 12 5 17 0 24 -2 18 -5z"/>
<path d="M1165 1869 c-8 -12 -8 -119 0 -127 3 -3 16 1 30 8 21 11 25 21 25 60
0 46 -13 70 -36 70 -7 0 -16 -5 -19 -11z"/>
<path d="M1247 1664 c-6 -6 -89 -13 -149 -14 l-67 0 5 -382 c3 -211 7 -393 10
-405 6 -29 32 -36 139 -39 50 -1 99 -3 110 -3 11 -1 34 0 50 3 17 2 64 7 105
11 98 8 113 23 106 109 -3 34 -7 196 -8 361 -1 165 -4 312 -6 327 l-4 27 -107
1 c-58 1 -123 3 -144 4 -20 1 -38 2 -40 0z m53 -44 c0 -19 -11 -26 -23 -14 -8
8 3 34 14 34 5 0 9 -9 9 -20z m-75 -50 c11 -5 14 -9 8 -9 -7 -1 -13 -8 -13
-16 0 -22 -12 -18 -33 10 -17 24 -17 25 0 24 10 0 27 -4 38 -9z m163 -26 c-9
-9 -21 -13 -27 -10 -20 13 -11 26 16 26 25 0 26 -1 11 -16z m-111 -51 c-41
-26 -54 -39 -45 -45 17 -11 -7 -28 -39 -28 -34 0 -28 17 18 47 23 16 53 36 68
45 14 10 33 18 41 18 8 0 -11 -17 -43 -37z m113 -53 c8 -16 8 -22 -4 -26 -24
-9 -39 5 -25 22 10 12 8 18 -7 30 -18 14 -18 15 3 4 13 -6 27 -19 33 -30z
m-80 -54 c0 -14 -18 -42 -23 -36 -2 3 -7 17 -11 32 -5 23 -3 25 14 21 11 -3
20 -10 20 -17z m-62 -327 c2 -34 -2 -67 -8 -74 -11 -13 -16 -42 -19 -93 0 -13
-5 -20 -11 -17 -5 3 -10 -1 -10 -9 0 -9 -3 -16 -7 -16 -5 0 -7 28 -5 62 2 58
1 61 -13 44 -8 -11 -15 -23 -15 -28 0 -4 -4 -8 -10 -8 -15 0 -13 100 3 100 6
0 28 23 47 50 19 27 37 50 40 50 3 0 7 -27 8 -61z m135 19 c44 -43 59 -98 45
-162 -10 -48 -11 -49 -24 -25 l-13 24 -1 -32 c0 -17 -5 -35 -11 -39 -8 -5 -10
7 -7 37 3 29 -2 59 -14 87 -17 40 -26 142 -12 142 3 0 20 -14 37 -32z m-198
13 c3 -5 1 -12 -5 -16 -5 -3 -10 1 -10 9 0 18 6 21 15 7z"/>
<path d="M833 1213 c-31 -4 -33 -7 -33 -42 0 -42 15 -52 60 -41 21 5 25 12 25
45 0 41 -3 44 -52 38z"/>
<path d="M1412 697 c-33 -35 -31 -109 4 -136 54 -42 94 -19 104 60 6 47 4 56
-16 76 -29 29 -65 29 -92 0z"/>
<path d="M842 705 c8 -6 13 -36 14 -78 1 -78 10 -92 53 -82 38 8 61 47 61 103
0 35 -4 42 -34 56 -37 18 -116 19 -94 1z"/>
</g>
</svg>
